PathFileType	4	(x/y/z)	S02_BK_Cal_T01
DataRate	CameraRate	NumFrames	NumMarkers	Units	OrigDataRate	OrigDataStartFrame	OrigNumFrames
240	240	6	51	mm	240	2101	2400
Frame#	Time	Sternum			R.Acromium			L.Acromium			Top.Head			R.ASIS			L.ASIS			R.PSIS			L.PSIS			R.Great.Tro			L.Great.Tro			R.Iliac.Crest			L.Iliac.Crest			V.Sacral			R.Thigh.Upper.Post			R.Thigh.Lower.Ant			R.Thigh.Lower.Post			R.Thigh.Upper.Ant			R.Knee.Lat			R.Knee.Med			R.Shank.Upper.Post			R.Shank.Lower.Ant			R.Shank.Lower.Post			R.Shank.Upper.Ant			R.Ankle.Lat			R.Ankle.Med			R.Heel.Upper			R.Heel.Med			R.Heel.Lat			R.Toe.Lat			R.Toe.Med			R.Toe.Tip			L.Thigh.Upper.Post			L.Thigh.Lower.Ant			L.Thigh.Lower.Post			L.Thigh.Upper.Ant			L.Knee.Lat			L.Knee.Med			L.Shank.Upper.Post			L.Shank.Lower.Ant			L.Shank.Lower.Post			L.Shank.Upper.Ant			L.Ankle.Lat			L.Ankle.Med			L.Heel.Upper			L.Heel.Med			L.Heel.Lat			L.Toe.Lat			L.Toe.Med			L.Toe.Tip			Cervical.Spine			Back			
		X1	Y1	Z1	X2	Y2	Z2	X3	Y3	Z3	X4	Y4	Z4	X5	Y5	Z5	X6	Y6	Z6	X7	Y7	Z7	X8	Y8	Z8	X9	Y9	Z9	X10	Y10	Z10	X11	Y11	Z11	X12	Y12	Z12	X13	Y13	Z13	X14	Y14	Z14	X15	Y15	Z15	X16	Y16	Z16	X17	Y17	Z17	X18	Y18	Z18	X19	Y19	Z19	X20	Y20	Z20	X21	Y21	Z21	X22	Y22	Z22	X23	Y23	Z23	X24	Y24	Z24	X25	Y25	Z25	X26	Y26	Z26	X27	Y27	Z27	X28	Y28	Z28	X29	Y29	Z29	X30	Y30	Z30	X31	Y31	Z31	X32	Y32	Z32	X33	Y33	Z33	X34	Y34	Z34	X35	Y35	Z35	X36	Y36	Z36	X37	Y37	Z37	X38	Y38	Z38	X39	Y39	Z39	X40	Y40	Z40	X41	Y41	Z41	X42	Y42	Z42	X43	Y43	Z43	X44	Y44	Z44	X45	Y45	Z45	X46	Y46	Z46	X47	Y47	Z47	X48	Y48	Z48	X49	Y49	Z49	X50	Y50	Z50	X51	Y51	Z51	

2101	8.75	635.08	1069.4	315.46	535.31	1310.5	460.51	526.22	1308.4	165.08	584.35	1597	312	591.19	884.16	418.84	587.34	876.24	204.53	370.63	919.91	367.59	364.48	921.55	292.51	521.2	782.31	514.84	462.4	794.09	121.21	493.63	938.02	477.29	467.43	934.15	146.5	344.1	871.56	325.27	583.75	589.65	510.38	658.94	527.02	480.82	592.53	500.38	495.93	646.04	615.19	492.07	627.25	428.97	485.35	623.91	406.16	346.17	494.26	257.68	477.3	537.17	156.61	468.66	476.97	186.72	473.96	557.67	223.02	482.2	458.66	90.912	466.6	474.11	96.735	382.28	399.93	73.838	406.37	416.92	40.856	381.44	398.43	43.056	443.03	552.78	41.347	508.21	600.26	34.647	405.83	639.44	63.395	468.2	512.76	568.23	124.74	610.19	517.95	111.97	544.21	483.26	137.68	570.99	604.75	101.85	617.13	435.21	114.95	631.51	421.91	250.94	498.02	292.47	113.84	541.93	189.5	113.57	477.84	221.32	123.82	556.62	264.34	105.21	465.33	103.26	123.36	485.55	92.91	205.21	406.49	67.553	162.66	420.37	40.97	193.97	408.16	40.407	133.54	567.74	36.868	79.248	604.87	45.615	184.39	657.44	62.811	129.88	456.36	1370.4	313.69	377.98	1123	325.92
2102	8.7542	635.08	1069.4	315.45	535.31	1310.5	460.5	526.23	1308.4	165.07	584.37	1597	311.97	591.15	884.12	418.82	587.32	876.21	204.51	370.59	919.89	367.55	364.45	921.52	292.48	521.15	782.29	514.82	462.38	794.07	121.18	493.6	937.99	477.27	467.41	934.13	146.47	344.07	871.53	325.24	583.72	589.64	510.36	658.92	527.01	480.82	592.51	500.37	495.92	646.01	615.19	492.06	627.24	428.97	485.34	623.92	406.15	346.16	494.26	257.68	477.3	537.17	156.61	468.66	476.97	186.72	473.96	557.67	223.02	482.2	458.66	90.913	466.6	474.11	96.732	382.28	399.93	73.835	406.36	416.92	40.855	381.44	398.43	43.054	443.03	552.78	41.348	508.21	600.26	34.648	405.83	639.44	63.396	468.2	512.75	568.22	124.72	610.19	517.95	111.96	544.21	483.25	137.66	570.98	604.74	101.82	617.13	435.21	114.94	631.51	421.91	250.93	498.02	292.46	113.83	541.94	189.5	113.57	477.84	221.31	123.81	556.62	264.33	105.2	465.33	103.26	123.36	485.55	92.907	205.21	406.49	67.55	162.66	420.37	40.966	193.96	408.16	40.402	133.54	567.74	36.868	79.248	604.87	45.615	184.39	657.44	62.812	129.88	456.37	1370.4	313.68	377.96	1123	325.9
2103	8.7583	635.07	1069.3	315.44	535.32	1310.5	460.49	526.25	1308.4	165.07	584.39	1597	311.95	591.12	884.09	418.81	587.3	876.17	204.49	370.54	919.86	367.51	364.41	921.5	292.45	521.1	782.26	514.79	462.37	794.06	121.14	493.56	937.97	477.25	467.39	934.12	146.44	344.04	871.51	325.2	583.68	589.63	510.35	658.9	527.01	480.82	592.49	500.37	495.91	645.98	615.18	492.06	627.23	428.96	485.34	623.94	406.14	346.15	494.26	257.67	477.3	537.17	156.61	468.65	476.97	186.71	473.95	557.67	223.02	482.19	458.66	90.913	466.59	474.11	96.73	382.27	399.92	73.833	406.36	416.91	40.854	381.44	398.43	43.052	443.03	552.78	41.348	508.21	600.26	34.649	405.83	639.44	63.397	468.2	512.74	568.2	124.7	610.19	517.94	111.96	544.21	483.24	137.65	570.97	604.73	101.8	617.13	435.2	114.93	631.51	421.9	250.92	498.03	292.45	113.83	541.94	189.49	113.57	477.85	221.31	123.8	556.63	264.33	105.2	465.33	103.26	123.36	485.55	92.904	205.21	406.49	67.547	162.66	420.36	40.962	193.96	408.16	40.397	133.54	567.74	36.868	79.249	604.87	45.615	184.39	657.44	62.813	129.88	456.38	1370.4	313.68	377.94	1123	325.88
2104	8.7625	635.06	1069.3	315.43	535.32	1310.4	460.48	526.26	1308.4	165.06	584.42	1596.9	311.93	591.09	884.05	418.79	587.28	876.14	204.47	370.51	919.84	367.47	364.38	921.48	292.41	521.06	782.24	514.77	462.35	794.04	121.11	493.53	937.95	477.23	467.37	934.11	146.41	344.01	871.49	325.17	583.64	589.61	510.33	658.88	527.01	480.82	592.47	500.36	495.9	645.95	615.18	492.06	627.22	428.96	485.33	623.96	406.13	346.14	494.25	257.67	477.29	537.17	156.61	468.65	476.97	186.7	473.95	557.67	223.03	482.19	458.66	90.912	466.59	474.11	96.727	382.27	399.92	73.832	406.36	416.91	40.853	381.43	398.43	43.049	443.02	552.78	41.349	508.21	600.26	34.65	405.83	639.44	63.398	468.2	512.72	568.19	124.69	610.18	517.93	111.95	544.2	483.22	137.64	570.95	604.72	101.78	617.14	435.2	114.92	631.51	421.9	250.92	498.03	292.44	113.82	541.95	189.48	113.57	477.85	221.3	123.79	556.63	264.32	105.19	465.33	103.25	123.36	485.55	92.9	205.21	406.49	67.544	162.66	420.36	40.958	193.96	408.16	40.393	133.54	567.74	36.868	79.249	604.87	45.615	184.4	657.43	62.814	129.88	456.39	1370.4	313.67	377.92	1123	325.86
2105	8.7667	635.05	1069.3	315.41	535.32	1310.4	460.47	526.27	1308.3	165.05	584.45	1596.9	311.9	591.06	884.02	418.78	587.26	876.11	204.45	370.47	919.82	367.44	364.35	921.46	292.38	521.01	782.22	514.75	462.33	794.03	121.08	493.49	937.93	477.22	467.35	934.09	146.38	343.98	871.48	325.14	583.61	589.6	510.32	658.86	527	480.82	592.45	500.35	495.88	645.92	615.17	492.06	627.21	428.95	485.33	623.97	406.12	346.14	494.25	257.67	477.29	537.16	156.6	468.64	476.97	186.7	473.95	557.67	223.03	482.19	458.66	90.912	466.59	474.11	96.724	382.27	399.91	73.833	406.36	416.91	40.853	381.43	398.43	43.046	443.02	552.78	41.349	508.21	600.26	34.651	405.83	639.44	63.399	468.2	512.71	568.18	124.68	610.17	517.92	111.94	544.19	483.21	137.63	570.94	604.71	101.77	617.13	435.19	114.92	631.51	421.9	250.91	498.03	292.44	113.81	541.95	189.47	113.57	477.85	221.29	123.79	556.63	264.32	105.19	465.33	103.25	123.35	485.54	92.897	205.21	406.49	67.541	162.65	420.36	40.954	193.96	408.16	40.388	133.54	567.74	36.868	79.249	604.87	45.615	184.4	657.43	62.815	129.88	456.39	1370.4	313.66	377.9	1123	325.83
2106	8.7708	635.04	1069.2	315.4	535.32	1310.4	460.46	526.28	1308.3	165.04	584.48	1596.9	311.88	591.03	883.98	418.76	587.24	876.09	204.42	370.43	919.8	367.4	364.32	921.45	292.34	520.96	782.19	514.73	462.32	794.02	121.05	493.46	937.91	477.2	467.33	934.08	146.36	343.95	871.46	325.11	583.57	589.58	510.3	658.83	527	480.82	592.43	500.35	495.87	645.89	615.17	492.06	627.2	428.95	485.32	623.99	406.11	346.13	494.25	257.67	477.28	537.16	156.6	468.64	476.97	186.69	473.95	557.67	223.04	482.19	458.66	90.911	466.58	474.11	96.721	382.26	399.91	73.833	406.35	416.91	40.852	381.43	398.43	43.043	443.02	552.78	41.35	508.21	600.26	34.652	405.83	639.44	63.401	468.2	512.7	568.17	124.67	610.16	517.91	111.93	544.18	483.2	137.62	570.92	604.69	101.75	617.13	435.19	114.91	631.52	421.9	250.9	498.03	292.43	113.8	541.95	189.47	113.57	477.85	221.29	123.78	556.63	264.31	105.19	465.33	103.25	123.35	485.54	92.893	205.21	406.49	67.539	162.65	420.36	40.95	193.96	408.16	40.384	133.54	567.74	36.867	79.249	604.87	45.614	184.4	657.43	62.816	129.88	456.4	1370.4	313.65	377.87	1123	325.81
